<svg width="920" height="81" viewBox="0 0 920 81" fill="none" xmlns="http://www.w3.org/2000/svg" class = "hwbsvg">
<mask id="path-1-outside-1" maskUnits="userSpaceOnUse" x="-0.234375" y="0.171875" width="920" height="81" fill="black">
<rect fill="white" x="-0.234375" y="0.171875" width="920" height="81"/>
<path d="M38.8906 34.4688H12.7812V57.0625H18.0781C19.0156 57.0625 19.6875 57.25 20.0938 57.625C20.5 57.9688 20.7031 58.4375 20.7031 59.0312C20.7031 59.5938 20.5 60.0625 20.0938 60.4375C19.6875 60.8125 19.0156 61 18.0781 61H4.39062C3.45312 61 2.78125 60.8125 2.375 60.4375C1.96875 60.0625 1.76562 59.5938 1.76562 59.0312C1.76562 58.4375 1.96875 57.9688 2.375 57.625C2.78125 57.25 3.45312 57.0625 4.39062 57.0625H8.84375V10.0938H6.40625C5.4375 10.0938 4.75 9.92188 4.34375 9.57812C3.9375 9.20312 3.73438 8.71875 3.73438 8.125C3.73438 7.53125 3.9375 7.0625 4.34375 6.71875C4.75 6.34375 5.4375 6.15625 6.40625 6.15625H18.0781C19.0156 6.15625 19.6875 6.34375 20.0938 6.71875C20.5 7.0625 20.7031 7.53125 20.7031 8.125C20.7031 8.71875 20.5 9.20312 20.0938 9.57812C19.6875 9.92188 19.0156 10.0938 18.0781 10.0938H12.7812V30.5312H38.8906V10.0938H33.6406C32.7031 10.0938 32.0312 9.92188 31.625 9.57812C31.2188 9.20312 31.0156 8.71875 31.0156 8.125C31.0156 7.53125 31.2031 7.0625 31.5781 6.71875C31.9844 6.34375 32.6719 6.15625 33.6406 6.15625H45.3125C46.2812 6.15625 46.9688 6.34375 47.375 6.71875C47.7812 7.0625 47.9844 7.53125 47.9844 8.125C47.9844 8.71875 47.7812 9.20312 47.375 9.57812C46.9688 9.92188 46.2812 10.0938 45.3125 10.0938H42.875V57.0625H47.3281C48.2656 57.0625 48.9375 57.25 49.3438 57.625C49.75 57.9688 49.9531 58.4375 49.9531 59.0312C49.9531 59.5938 49.75 60.0625 49.3438 60.4375C48.9375 60.8125 48.2656 61 47.3281 61H33.6406C32.7031 61 32.0312 60.8125 31.625 60.4375C31.2188 60.0625 31.0156 59.5938 31.0156 59.0312C31.0156 58.4375 31.2031 57.9688 31.5781 57.625C31.9844 57.25 32.6719 57.0625 33.6406 57.0625H38.8906V34.4688Z"/>
<path d="M96.6875 61V55.2344C91.3125 60.1094 85.5 62.5469 79.25 62.5469C75.4062 62.5469 72.4844 61.5 70.4844 59.4062C67.8906 56.6562 66.5938 53.4531 66.5938 49.7969V24.3906H61.2969C60.3594 24.3906 59.6875 24.2031 59.2812 23.8281C58.875 23.4531 58.6719 22.9688 58.6719 22.375C58.6719 21.8125 58.875 21.3438 59.2812 20.9688C59.6875 20.5938 60.3594 20.4062 61.2969 20.4062H70.5312V49.7969C70.5312 52.3594 71.3438 54.4688 72.9688 56.125C74.5938 57.7812 76.625 58.6094 79.0625 58.6094C85.4688 58.6094 91.3438 55.6719 96.6875 49.7969V24.3906H89.4219C88.4844 24.3906 87.8125 24.2031 87.4062 23.8281C87 23.4531 86.7969 22.9688 86.7969 22.375C86.7969 21.8125 87 21.3438 87.4062 20.9688C87.8125 20.5938 88.4844 20.4062 89.4219 20.4062H100.625V57.0625H103.953C104.891 57.0625 105.562 57.25 105.969 57.625C106.375 57.9688 106.578 58.4375 106.578 59.0312C106.578 59.5938 106.375 60.0625 105.969 60.4375C105.562 60.8125 104.891 61 103.953 61H96.6875Z"/>
<path d="M154.109 27.625V20.4062H163.344C164.281 20.4062 164.953 20.5938 165.359 20.9688C165.766 21.3438 165.969 21.8281 165.969 22.4219C165.969 22.9844 165.766 23.4531 165.359 23.8281C164.953 24.2031 164.281 24.3906 163.344 24.3906H158.047V63.7188C158.047 66.3438 157.484 68.6875 156.359 70.75C155.609 72.125 154.359 73.5469 152.609 75.0156C150.859 76.4844 149.266 77.5312 147.828 78.1562C146.391 78.7812 144.469 79.0938 142.062 79.0938H130.906C129.969 79.0938 129.297 78.9062 128.891 78.5312C128.484 78.1875 128.281 77.7188 128.281 77.125C128.281 76.5312 128.484 76.0469 128.891 75.6719C129.297 75.2969 129.969 75.1094 130.906 75.1094L142.203 75.1562C144.516 75.1562 146.594 74.5625 148.438 73.375C150.312 72.1875 151.859 70.4531 153.078 68.1719C153.766 66.8594 154.109 65.1875 154.109 63.1562V51.3438C149.891 57.125 144.453 60.0156 137.797 60.0156C132.391 60.0156 127.719 58.0156 123.781 54.0156C119.875 49.9844 117.922 45.1406 117.922 39.4844C117.922 33.8281 119.875 29 123.781 25C127.719 21 132.391 19 137.797 19C144.453 19 149.891 21.875 154.109 27.625ZM154.109 39.4844C154.109 34.8594 152.516 30.9531 149.328 27.7656C146.172 24.5781 142.391 22.9844 137.984 22.9844C133.578 22.9844 129.797 24.5938 126.641 27.8125C123.484 31 121.906 34.8906 121.906 39.4844C121.906 44.1094 123.484 48.0312 126.641 51.25C129.797 54.4375 133.578 56.0312 137.984 56.0312C142.391 56.0312 146.172 54.4375 149.328 51.25C152.516 48.0312 154.109 44.1094 154.109 39.4844Z"/>
<path d="M220.531 40.7969C220.531 46.7969 218.375 51.9219 214.062 56.1719C209.781 60.4219 204.609 62.5469 198.547 62.5469C192.422 62.5469 187.219 60.4219 182.938 56.1719C178.656 51.8906 176.516 46.7656 176.516 40.7969C176.516 34.7969 178.656 29.6719 182.938 25.4219C187.219 21.1406 192.422 19 198.547 19C204.609 19 209.781 21.125 214.062 25.375C218.375 29.625 220.531 34.7656 220.531 40.7969ZM216.547 40.7969C216.547 35.8594 214.781 31.6562 211.25 28.1875C207.75 24.7188 203.5 22.9844 198.5 22.9844C193.5 22.9844 189.234 24.7344 185.703 28.2344C182.203 31.7031 180.453 35.8906 180.453 40.7969C180.453 45.6719 182.203 49.8594 185.703 53.3594C189.234 56.8594 193.5 58.6094 198.5 58.6094C203.5 58.6094 207.75 56.875 211.25 53.4062C214.781 49.9062 216.547 45.7031 216.547 40.7969Z"/>
<path d="M331.109 61H324.922L313.766 22.0469L302.844 61H296.656L290.844 10.0938H289.391C288.453 10.0938 287.781 9.92188 287.375 9.57812C286.969 9.20312 286.766 8.71875 286.766 8.125C286.766 7.53125 286.969 7.0625 287.375 6.71875C287.781 6.34375 288.453 6.15625 289.391 6.15625H304.016C304.984 6.15625 305.672 6.34375 306.078 6.71875C306.484 7.0625 306.688 7.53125 306.688 8.125C306.688 8.71875 306.484 9.20312 306.078 9.57812C305.672 9.92188 304.984 10.0938 304.016 10.0938H294.828L300.031 56.5L310.672 18.2969H316.719L327.641 56.5L332.75 10.0938H323.516C322.578 10.0938 321.906 9.92188 321.5 9.57812C321.094 9.20312 320.891 8.71875 320.891 8.125C320.891 7.53125 321.094 7.0625 321.5 6.71875C321.906 6.34375 322.578 6.15625 323.516 6.15625H338.047C339.016 6.15625 339.703 6.34375 340.109 6.71875C340.516 7.0625 340.719 7.53125 340.719 8.125C340.719 8.71875 340.516 9.20312 340.109 9.57812C339.703 9.92188 339.016 10.0938 338.047 10.0938H336.594L331.109 61Z"/>
<path d="M393.5 40.7969C393.5 46.7969 391.344 51.9219 387.031 56.1719C382.75 60.4219 377.578 62.5469 371.516 62.5469C365.391 62.5469 360.188 60.4219 355.906 56.1719C351.625 51.8906 349.484 46.7656 349.484 40.7969C349.484 34.7969 351.625 29.6719 355.906 25.4219C360.188 21.1406 365.391 19 371.516 19C377.578 19 382.75 21.125 387.031 25.375C391.344 29.625 393.5 34.7656 393.5 40.7969ZM389.516 40.7969C389.516 35.8594 387.75 31.6562 384.219 28.1875C380.719 24.7188 376.469 22.9844 371.469 22.9844C366.469 22.9844 362.203 24.7344 358.672 28.2344C355.172 31.7031 353.422 35.8906 353.422 40.7969C353.422 45.6719 355.172 49.8594 358.672 53.3594C362.203 56.8594 366.469 58.6094 371.469 58.6094C376.469 58.6094 380.719 56.875 384.219 53.4062C387.75 49.9062 389.516 45.7031 389.516 40.7969Z"/>
<path d="M416.422 20.4062V26.3594C419.172 23.5781 421.656 21.6562 423.875 20.5938C426.094 19.5312 428.594 19 431.375 19C434.375 19 437.109 19.6406 439.578 20.9219C441.328 21.8594 442.906 23.4219 444.312 25.6094C445.75 27.7656 446.469 29.9844 446.469 32.2656V57.0625H449.797C450.734 57.0625 451.406 57.25 451.812 57.625C452.219 57.9688 452.422 58.4375 452.422 59.0312C452.422 59.5938 452.219 60.0625 451.812 60.4375C451.406 60.8125 450.734 61 449.797 61H439.25C438.281 61 437.594 60.8125 437.188 60.4375C436.781 60.0625 436.578 59.5938 436.578 59.0312C436.578 58.4375 436.781 57.9688 437.188 57.625C437.594 57.25 438.281 57.0625 439.25 57.0625H442.531V32.9219C442.531 30.1406 441.516 27.7969 439.484 25.8906C437.453 23.9531 434.734 22.9844 431.328 22.9844C428.734 22.9844 426.484 23.5156 424.578 24.5781C422.672 25.6094 419.953 28.2031 416.422 32.3594V57.0625H420.875C421.812 57.0625 422.484 57.25 422.891 57.625C423.297 57.9688 423.5 58.4375 423.5 59.0312C423.5 59.5938 423.297 60.0625 422.891 60.4375C422.484 60.8125 421.812 61 420.875 61H408.031C407.094 61 406.422 60.8125 406.016 60.4375C405.609 60.0625 405.406 59.5938 405.406 59.0312C405.406 58.4375 405.609 57.9688 406.016 57.625C406.422 57.25 407.094 57.0625 408.031 57.0625H412.484V24.3906H409.156C408.219 24.3906 407.547 24.2031 407.141 23.8281C406.734 23.4531 406.531 22.9688 406.531 22.375C406.531 21.8125 406.734 21.3438 407.141 20.9688C407.547 20.5938 408.219 20.4062 409.156 20.4062H416.422Z"/>
<path d="M500.047 27.625V20.4062H509.281C510.219 20.4062 510.891 20.5938 511.297 20.9688C511.703 21.3438 511.906 21.8281 511.906 22.4219C511.906 22.9844 511.703 23.4531 511.297 23.8281C510.891 24.2031 510.219 24.3906 509.281 24.3906H503.984V63.7188C503.984 66.3438 503.422 68.6875 502.297 70.75C501.547 72.125 500.297 73.5469 498.547 75.0156C496.797 76.4844 495.203 77.5312 493.766 78.1562C492.328 78.7812 490.406 79.0938 488 79.0938H476.844C475.906 79.0938 475.234 78.9062 474.828 78.5312C474.422 78.1875 474.219 77.7188 474.219 77.125C474.219 76.5312 474.422 76.0469 474.828 75.6719C475.234 75.2969 475.906 75.1094 476.844 75.1094L488.141 75.1562C490.453 75.1562 492.531 74.5625 494.375 73.375C496.25 72.1875 497.797 70.4531 499.016 68.1719C499.703 66.8594 500.047 65.1875 500.047 63.1562V51.3438C495.828 57.125 490.391 60.0156 483.734 60.0156C478.328 60.0156 473.656 58.0156 469.719 54.0156C465.812 49.9844 463.859 45.1406 463.859 39.4844C463.859 33.8281 465.812 29 469.719 25C473.656 21 478.328 19 483.734 19C490.391 19 495.828 21.875 500.047 27.625ZM500.047 39.4844C500.047 34.8594 498.453 30.9531 495.266 27.7656C492.109 24.5781 488.328 22.9844 483.922 22.9844C479.516 22.9844 475.734 24.5938 472.578 27.8125C469.422 31 467.844 34.8906 467.844 39.4844C467.844 44.1094 469.422 48.0312 472.578 51.25C475.734 54.4375 479.516 56.0312 483.922 56.0312C488.328 56.0312 492.109 54.4375 495.266 51.25C498.453 48.0312 500.047 44.1094 500.047 39.4844Z"/>
<path d="M564.547 31.0469V36.6719H524.375V31.0469H564.547Z"/>
<path d="M585.312 57.0625V10.0938H580.016C579.078 10.0938 578.406 9.92188 578 9.57812C577.594 9.20312 577.391 8.71875 577.391 8.125C577.391 7.53125 577.594 7.0625 578 6.71875C578.406 6.34375 579.078 6.15625 580.016 6.15625H604.766C609.672 6.15625 613.656 7.57812 616.719 10.4219C619.812 13.2344 621.359 16.5469 621.359 20.3594C621.359 25.1719 618.781 29.0625 613.625 32.0312C617.719 33.5 620.719 35.4531 622.625 37.8906C624.531 40.3281 625.484 43.0156 625.484 45.9531C625.484 48.5781 624.859 50.9844 623.609 53.1719C622.359 55.3281 620.438 57.1719 617.844 58.7031C615.281 60.2344 612.484 61 609.453 61H580.016C579.078 61 578.406 60.8125 578 60.4375C577.594 60.0625 577.391 59.5938 577.391 59.0312C577.391 58.4375 577.594 57.9688 578 57.625C578.406 57.25 579.078 57.0625 580.016 57.0625H585.312ZM589.25 30.5312H603.172C606.141 30.5312 608.859 29.9844 611.328 28.8906C613.234 28.0156 614.719 26.75 615.781 25.0938C616.844 23.4375 617.375 21.75 617.375 20.0312C617.375 17.5625 616.219 15.2969 613.906 13.2344C611.594 11.1406 608.578 10.0938 604.859 10.0938H589.25V30.5312ZM589.25 57.0625H609.172C611.703 57.0625 613.906 56.5 615.781 55.375C617.656 54.25 619.078 52.8594 620.047 51.2031C621.016 49.5469 621.5 47.8281 621.5 46.0469C621.5 44.0469 620.797 42.1094 619.391 40.2344C618.016 38.3594 616.094 36.9375 613.625 35.9688C611.156 35 607.75 34.5156 603.406 34.5156H589.25V57.0625Z"/>
<path d="M681.078 41.6406H640.953C641.641 46.7344 643.766 50.8438 647.328 53.9688C650.922 57.0625 655.359 58.6094 660.641 58.6094C663.578 58.6094 666.656 58.125 669.875 57.1562C673.094 56.1875 675.719 54.9062 677.75 53.3125C678.344 52.8438 678.859 52.6094 679.297 52.6094C679.797 52.6094 680.234 52.8125 680.609 53.2188C680.984 53.5938 681.172 54.0469 681.172 54.5781C681.172 55.1094 680.922 55.625 680.422 56.125C678.922 57.6875 676.25 59.1562 672.406 60.5312C668.594 61.875 664.672 62.5469 660.641 62.5469C653.891 62.5469 648.25 60.3438 643.719 55.9375C639.219 51.5 636.969 46.1406 636.969 39.8594C636.969 34.1406 639.078 29.2344 643.297 25.1406C647.547 21.0469 652.797 19 659.047 19C665.484 19 670.781 21.1094 674.938 25.3281C679.094 29.5156 681.141 34.9531 681.078 41.6406ZM677.094 37.6562C676.312 33.3125 674.25 29.7812 670.906 27.0625C667.594 24.3438 663.641 22.9844 659.047 22.9844C654.453 22.9844 650.5 24.3281 647.188 27.0156C643.875 29.7031 641.812 33.25 641 37.6562H677.094Z"/>
<path d="M712.719 20.4062V30.3438C717.844 25.7188 721.672 22.75 724.203 21.4375C726.766 20.0938 729.125 19.4219 731.281 19.4219C733.625 19.4219 735.797 20.2188 737.797 21.8125C739.828 23.375 740.844 24.5625 740.844 25.375C740.844 25.9688 740.641 26.4688 740.234 26.875C739.859 27.25 739.375 27.4375 738.781 27.4375C738.469 27.4375 738.203 27.3906 737.984 27.2969C737.766 27.1719 737.359 26.8125 736.766 26.2188C735.672 25.125 734.719 24.375 733.906 23.9688C733.094 23.5625 732.297 23.3594 731.516 23.3594C729.797 23.3594 727.719 24.0469 725.281 25.4219C722.875 26.7969 718.688 30.1562 712.719 35.5V57.0625H730.156C731.125 57.0625 731.812 57.25 732.219 57.625C732.625 57.9688 732.828 58.4375 732.828 59.0312C732.828 59.5938 732.625 60.0625 732.219 60.4375C731.812 60.8125 731.125 61 730.156 61H699.266C698.328 61 697.656 60.8281 697.25 60.4844C696.844 60.1094 696.641 59.6406 696.641 59.0781C696.641 58.5469 696.828 58.1094 697.203 57.7656C697.609 57.3906 698.297 57.2031 699.266 57.2031H708.781V24.3906H701.516C700.578 24.3906 699.906 24.2031 699.5 23.8281C699.094 23.4531 698.891 22.9688 698.891 22.375C698.891 21.8125 699.078 21.3438 699.453 20.9688C699.859 20.5938 700.547 20.4062 701.516 20.4062H712.719Z"/>
<path d="M786.406 61V55.3281C780.688 60.1406 774.578 62.5469 768.078 62.5469C763.359 62.5469 759.672 61.3594 757.016 58.9844C754.359 56.5781 753.031 53.6406 753.031 50.1719C753.031 46.3594 754.781 43.0312 758.281 40.1875C761.781 37.3438 766.891 35.9219 773.609 35.9219C775.422 35.9219 777.391 36.0469 779.516 36.2969C781.641 36.5156 783.938 36.875 786.406 37.375V31C786.406 28.8438 785.406 26.9688 783.406 25.375C781.406 23.7812 778.406 22.9844 774.406 22.9844C771.344 22.9844 767.047 23.875 761.516 25.6562C760.516 25.9688 759.875 26.125 759.594 26.125C759.094 26.125 758.656 25.9375 758.281 25.5625C757.938 25.1875 757.766 24.7188 757.766 24.1562C757.766 23.625 757.922 23.2031 758.234 22.8906C758.672 22.4219 760.438 21.7812 763.531 20.9688C768.406 19.6562 772.094 19 774.594 19C779.562 19 783.438 20.2344 786.219 22.7031C789 25.1406 790.391 27.9062 790.391 31V57.0625H795.641C796.609 57.0625 797.297 57.25 797.703 57.625C798.109 57.9688 798.312 58.4375 798.312 59.0312C798.312 59.5938 798.109 60.0625 797.703 60.4375C797.297 60.8125 796.609 61 795.641 61H786.406ZM786.406 41.4062C784.562 40.875 782.609 40.4844 780.547 40.2344C778.484 39.9844 776.312 39.8594 774.031 39.8594C768.312 39.8594 763.844 41.0938 760.625 43.5625C758.188 45.4062 756.969 47.6094 756.969 50.1719C756.969 52.5469 757.891 54.5469 759.734 56.1719C761.609 57.7969 764.328 58.6094 767.891 58.6094C771.297 58.6094 774.453 57.9375 777.359 56.5938C780.297 55.2188 783.312 53.0469 786.406 50.0781V41.4062Z"/>
<path d="M828.031 20.4062V30.3438C833.156 25.7188 836.984 22.75 839.516 21.4375C842.078 20.0938 844.438 19.4219 846.594 19.4219C848.938 19.4219 851.109 20.2188 853.109 21.8125C855.141 23.375 856.156 24.5625 856.156 25.375C856.156 25.9688 855.953 26.4688 855.547 26.875C855.172 27.25 854.688 27.4375 854.094 27.4375C853.781 27.4375 853.516 27.3906 853.297 27.2969C853.078 27.1719 852.672 26.8125 852.078 26.2188C850.984 25.125 850.031 24.375 849.219 23.9688C848.406 23.5625 847.609 23.3594 846.828 23.3594C845.109 23.3594 843.031 24.0469 840.594 25.4219C838.188 26.7969 834 30.1562 828.031 35.5V57.0625H845.469C846.438 57.0625 847.125 57.25 847.531 57.625C847.938 57.9688 848.141 58.4375 848.141 59.0312C848.141 59.5938 847.938 60.0625 847.531 60.4375C847.125 60.8125 846.438 61 845.469 61H814.578C813.641 61 812.969 60.8281 812.562 60.4844C812.156 60.1094 811.953 59.6406 811.953 59.0781C811.953 58.5469 812.141 58.1094 812.516 57.7656C812.922 57.3906 813.609 57.2031 814.578 57.2031H824.094V24.3906H816.828C815.891 24.3906 815.219 24.2031 814.812 23.8281C814.406 23.4531 814.203 22.9688 814.203 22.375C814.203 21.8125 814.391 21.3438 814.766 20.9688C815.172 20.5938 815.859 20.4062 816.828 20.4062H828.031Z"/>
<path d="M909.688 2.17188V57.0625H914.938C915.906 57.0625 916.594 57.25 917 57.625C917.406 57.9688 917.609 58.4375 917.609 59.0312C917.609 59.5938 917.406 60.0625 917 60.4375C916.594 60.8125 915.906 61 914.938 61H905.703V53.1719C901.141 59.4219 895.344 62.5469 888.312 62.5469C884.75 62.5469 881.328 61.6094 878.047 59.7344C874.797 57.8281 872.219 55.125 870.312 51.625C868.438 48.125 867.5 44.5156 867.5 40.7969C867.5 37.0469 868.438 33.4375 870.312 29.9688C872.219 26.4688 874.797 23.7656 878.047 21.8594C881.328 19.9531 884.766 19 888.359 19C895.234 19 901.016 22.125 905.703 28.375V6.15625H900.453C899.484 6.15625 898.797 5.96875 898.391 5.59375C897.984 5.21875 897.781 4.73438 897.781 4.14062C897.781 3.57812 897.984 3.10938 898.391 2.73438C898.797 2.35938 899.484 2.17188 900.453 2.17188H909.688ZM905.703 40.7969C905.703 35.7969 904.016 31.5781 900.641 28.1406C897.266 24.7031 893.25 22.9844 888.594 22.9844C883.906 22.9844 879.875 24.7031 876.5 28.1406C873.125 31.5781 871.438 35.7969 871.438 40.7969C871.438 45.7656 873.125 49.9844 876.5 53.4531C879.875 56.8906 883.906 58.6094 888.594 58.6094C893.25 58.6094 897.266 56.8906 900.641 53.4531C904.016 49.9844 905.703 45.7656 905.703 40.7969Z"/>
</mask>
<path d="M38.8906 34.4688H12.7812V57.0625H18.0781C19.0156 57.0625 19.6875 57.25 20.0938 57.625C20.5 57.9688 20.7031 58.4375 20.7031 59.0312C20.7031 59.5938 20.5 60.0625 20.0938 60.4375C19.6875 60.8125 19.0156 61 18.0781 61H4.39062C3.45312 61 2.78125 60.8125 2.375 60.4375C1.96875 60.0625 1.76562 59.5938 1.76562 59.0312C1.76562 58.4375 1.96875 57.9688 2.375 57.625C2.78125 57.25 3.45312 57.0625 4.39062 57.0625H8.84375V10.0938H6.40625C5.4375 10.0938 4.75 9.92188 4.34375 9.57812C3.9375 9.20312 3.73438 8.71875 3.73438 8.125C3.73438 7.53125 3.9375 7.0625 4.34375 6.71875C4.75 6.34375 5.4375 6.15625 6.40625 6.15625H18.0781C19.0156 6.15625 19.6875 6.34375 20.0938 6.71875C20.5 7.0625 20.7031 7.53125 20.7031 8.125C20.7031 8.71875 20.5 9.20312 20.0938 9.57812C19.6875 9.92188 19.0156 10.0938 18.0781 10.0938H12.7812V30.5312H38.8906V10.0938H33.6406C32.7031 10.0938 32.0312 9.92188 31.625 9.57812C31.2188 9.20312 31.0156 8.71875 31.0156 8.125C31.0156 7.53125 31.2031 7.0625 31.5781 6.71875C31.9844 6.34375 32.6719 6.15625 33.6406 6.15625H45.3125C46.2812 6.15625 46.9688 6.34375 47.375 6.71875C47.7812 7.0625 47.9844 7.53125 47.9844 8.125C47.9844 8.71875 47.7812 9.20312 47.375 9.57812C46.9688 9.92188 46.2812 10.0938 45.3125 10.0938H42.875V57.0625H47.3281C48.2656 57.0625 48.9375 57.25 49.3438 57.625C49.75 57.9688 49.9531 58.4375 49.9531 59.0312C49.9531 59.5938 49.75 60.0625 49.3438 60.4375C48.9375 60.8125 48.2656 61 47.3281 61H33.6406C32.7031 61 32.0312 60.8125 31.625 60.4375C31.2188 60.0625 31.0156 59.5938 31.0156 59.0312C31.0156 58.4375 31.2031 57.9688 31.5781 57.625C31.9844 57.25 32.6719 57.0625 33.6406 57.0625H38.8906V34.4688Z" stroke="black" stroke-width="3" mask="url(#path-1-outside-1)"/>
<path d="M96.6875 61V55.2344C91.3125 60.1094 85.5 62.5469 79.25 62.5469C75.4062 62.5469 72.4844 61.5 70.4844 59.4062C67.8906 56.6562 66.5938 53.4531 66.5938 49.7969V24.3906H61.2969C60.3594 24.3906 59.6875 24.2031 59.2812 23.8281C58.875 23.4531 58.6719 22.9688 58.6719 22.375C58.6719 21.8125 58.875 21.3438 59.2812 20.9688C59.6875 20.5938 60.3594 20.4062 61.2969 20.4062H70.5312V49.7969C70.5312 52.3594 71.3438 54.4688 72.9688 56.125C74.5938 57.7812 76.625 58.6094 79.0625 58.6094C85.4688 58.6094 91.3438 55.6719 96.6875 49.7969V24.3906H89.4219C88.4844 24.3906 87.8125 24.2031 87.4062 23.8281C87 23.4531 86.7969 22.9688 86.7969 22.375C86.7969 21.8125 87 21.3438 87.4062 20.9688C87.8125 20.5938 88.4844 20.4062 89.4219 20.4062H100.625V57.0625H103.953C104.891 57.0625 105.562 57.25 105.969 57.625C106.375 57.9688 106.578 58.4375 106.578 59.0312C106.578 59.5938 106.375 60.0625 105.969 60.4375C105.562 60.8125 104.891 61 103.953 61H96.6875Z" stroke="black" stroke-width="3" mask="url(#path-1-outside-1)"/>
<path d="M154.109 27.625V20.4062H163.344C164.281 20.4062 164.953 20.5938 165.359 20.9688C165.766 21.3438 165.969 21.8281 165.969 22.4219C165.969 22.9844 165.766 23.4531 165.359 23.8281C164.953 24.2031 164.281 24.3906 163.344 24.3906H158.047V63.7188C158.047 66.3438 157.484 68.6875 156.359 70.75C155.609 72.125 154.359 73.5469 152.609 75.0156C150.859 76.4844 149.266 77.5312 147.828 78.1562C146.391 78.7812 144.469 79.0938 142.062 79.0938H130.906C129.969 79.0938 129.297 78.9062 128.891 78.5312C128.484 78.1875 128.281 77.7188 128.281 77.125C128.281 76.5312 128.484 76.0469 128.891 75.6719C129.297 75.2969 129.969 75.1094 130.906 75.1094L142.203 75.1562C144.516 75.1562 146.594 74.5625 148.438 73.375C150.312 72.1875 151.859 70.4531 153.078 68.1719C153.766 66.8594 154.109 65.1875 154.109 63.1562V51.3438C149.891 57.125 144.453 60.0156 137.797 60.0156C132.391 60.0156 127.719 58.0156 123.781 54.0156C119.875 49.9844 117.922 45.1406 117.922 39.4844C117.922 33.8281 119.875 29 123.781 25C127.719 21 132.391 19 137.797 19C144.453 19 149.891 21.875 154.109 27.625ZM154.109 39.4844C154.109 34.8594 152.516 30.9531 149.328 27.7656C146.172 24.5781 142.391 22.9844 137.984 22.9844C133.578 22.9844 129.797 24.5938 126.641 27.8125C123.484 31 121.906 34.8906 121.906 39.4844C121.906 44.1094 123.484 48.0312 126.641 51.25C129.797 54.4375 133.578 56.0312 137.984 56.0312C142.391 56.0312 146.172 54.4375 149.328 51.25C152.516 48.0312 154.109 44.1094 154.109 39.4844Z" stroke="black" stroke-width="3" mask="url(#path-1-outside-1)"/>
<path d="M220.531 40.7969C220.531 46.7969 218.375 51.9219 214.062 56.1719C209.781 60.4219 204.609 62.5469 198.547 62.5469C192.422 62.5469 187.219 60.4219 182.938 56.1719C178.656 51.8906 176.516 46.7656 176.516 40.7969C176.516 34.7969 178.656 29.6719 182.938 25.4219C187.219 21.1406 192.422 19 198.547 19C204.609 19 209.781 21.125 214.062 25.375C218.375 29.625 220.531 34.7656 220.531 40.7969ZM216.547 40.7969C216.547 35.8594 214.781 31.6562 211.25 28.1875C207.75 24.7188 203.5 22.9844 198.5 22.9844C193.5 22.9844 189.234 24.7344 185.703 28.2344C182.203 31.7031 180.453 35.8906 180.453 40.7969C180.453 45.6719 182.203 49.8594 185.703 53.3594C189.234 56.8594 193.5 58.6094 198.5 58.6094C203.5 58.6094 207.75 56.875 211.25 53.4062C214.781 49.9062 216.547 45.7031 216.547 40.7969Z" stroke="black" stroke-width="3" mask="url(#path-1-outside-1)"/>
<path d="M331.109 61H324.922L313.766 22.0469L302.844 61H296.656L290.844 10.0938H289.391C288.453 10.0938 287.781 9.92188 287.375 9.57812C286.969 9.20312 286.766 8.71875 286.766 8.125C286.766 7.53125 286.969 7.0625 287.375 6.71875C287.781 6.34375 288.453 6.15625 289.391 6.15625H304.016C304.984 6.15625 305.672 6.34375 306.078 6.71875C306.484 7.0625 306.688 7.53125 306.688 8.125C306.688 8.71875 306.484 9.20312 306.078 9.57812C305.672 9.92188 304.984 10.0938 304.016 10.0938H294.828L300.031 56.5L310.672 18.2969H316.719L327.641 56.5L332.75 10.0938H323.516C322.578 10.0938 321.906 9.92188 321.5 9.57812C321.094 9.20312 320.891 8.71875 320.891 8.125C320.891 7.53125 321.094 7.0625 321.5 6.71875C321.906 6.34375 322.578 6.15625 323.516 6.15625H338.047C339.016 6.15625 339.703 6.34375 340.109 6.71875C340.516 7.0625 340.719 7.53125 340.719 8.125C340.719 8.71875 340.516 9.20312 340.109 9.57812C339.703 9.92188 339.016 10.0938 338.047 10.0938H336.594L331.109 61Z" stroke="black" stroke-width="3" mask="url(#path-1-outside-1)"/>
<path d="M393.5 40.7969C393.5 46.7969 391.344 51.9219 387.031 56.1719C382.75 60.4219 377.578 62.5469 371.516 62.5469C365.391 62.5469 360.188 60.4219 355.906 56.1719C351.625 51.8906 349.484 46.7656 349.484 40.7969C349.484 34.7969 351.625 29.6719 355.906 25.4219C360.188 21.1406 365.391 19 371.516 19C377.578 19 382.75 21.125 387.031 25.375C391.344 29.625 393.5 34.7656 393.5 40.7969ZM389.516 40.7969C389.516 35.8594 387.75 31.6562 384.219 28.1875C380.719 24.7188 376.469 22.9844 371.469 22.9844C366.469 22.9844 362.203 24.7344 358.672 28.2344C355.172 31.7031 353.422 35.8906 353.422 40.7969C353.422 45.6719 355.172 49.8594 358.672 53.3594C362.203 56.8594 366.469 58.6094 371.469 58.6094C376.469 58.6094 380.719 56.875 384.219 53.4062C387.75 49.9062 389.516 45.7031 389.516 40.7969Z" stroke="black" stroke-width="3" mask="url(#path-1-outside-1)"/>
<path d="M416.422 20.4062V26.3594C419.172 23.5781 421.656 21.6562 423.875 20.5938C426.094 19.5312 428.594 19 431.375 19C434.375 19 437.109 19.6406 439.578 20.9219C441.328 21.8594 442.906 23.4219 444.312 25.6094C445.75 27.7656 446.469 29.9844 446.469 32.2656V57.0625H449.797C450.734 57.0625 451.406 57.25 451.812 57.625C452.219 57.9688 452.422 58.4375 452.422 59.0312C452.422 59.5938 452.219 60.0625 451.812 60.4375C451.406 60.8125 450.734 61 449.797 61H439.25C438.281 61 437.594 60.8125 437.188 60.4375C436.781 60.0625 436.578 59.5938 436.578 59.0312C436.578 58.4375 436.781 57.9688 437.188 57.625C437.594 57.25 438.281 57.0625 439.25 57.0625H442.531V32.9219C442.531 30.1406 441.516 27.7969 439.484 25.8906C437.453 23.9531 434.734 22.9844 431.328 22.9844C428.734 22.9844 426.484 23.5156 424.578 24.5781C422.672 25.6094 419.953 28.2031 416.422 32.3594V57.0625H420.875C421.812 57.0625 422.484 57.25 422.891 57.625C423.297 57.9688 423.5 58.4375 423.5 59.0312C423.5 59.5938 423.297 60.0625 422.891 60.4375C422.484 60.8125 421.812 61 420.875 61H408.031C407.094 61 406.422 60.8125 406.016 60.4375C405.609 60.0625 405.406 59.5938 405.406 59.0312C405.406 58.4375 405.609 57.9688 406.016 57.625C406.422 57.25 407.094 57.0625 408.031 57.0625H412.484V24.3906H409.156C408.219 24.3906 407.547 24.2031 407.141 23.8281C406.734 23.4531 406.531 22.9688 406.531 22.375C406.531 21.8125 406.734 21.3438 407.141 20.9688C407.547 20.5938 408.219 20.4062 409.156 20.4062H416.422Z" stroke="black" stroke-width="3" mask="url(#path-1-outside-1)"/>
<path d="M500.047 27.625V20.4062H509.281C510.219 20.4062 510.891 20.5938 511.297 20.9688C511.703 21.3438 511.906 21.8281 511.906 22.4219C511.906 22.9844 511.703 23.4531 511.297 23.8281C510.891 24.2031 510.219 24.3906 509.281 24.3906H503.984V63.7188C503.984 66.3438 503.422 68.6875 502.297 70.75C501.547 72.125 500.297 73.5469 498.547 75.0156C496.797 76.4844 495.203 77.5312 493.766 78.1562C492.328 78.7812 490.406 79.0938 488 79.0938H476.844C475.906 79.0938 475.234 78.9062 474.828 78.5312C474.422 78.1875 474.219 77.7188 474.219 77.125C474.219 76.5312 474.422 76.0469 474.828 75.6719C475.234 75.2969 475.906 75.1094 476.844 75.1094L488.141 75.1562C490.453 75.1562 492.531 74.5625 494.375 73.375C496.25 72.1875 497.797 70.4531 499.016 68.1719C499.703 66.8594 500.047 65.1875 500.047 63.1562V51.3438C495.828 57.125 490.391 60.0156 483.734 60.0156C478.328 60.0156 473.656 58.0156 469.719 54.0156C465.812 49.9844 463.859 45.1406 463.859 39.4844C463.859 33.8281 465.812 29 469.719 25C473.656 21 478.328 19 483.734 19C490.391 19 495.828 21.875 500.047 27.625ZM500.047 39.4844C500.047 34.8594 498.453 30.9531 495.266 27.7656C492.109 24.5781 488.328 22.9844 483.922 22.9844C479.516 22.9844 475.734 24.5938 472.578 27.8125C469.422 31 467.844 34.8906 467.844 39.4844C467.844 44.1094 469.422 48.0312 472.578 51.25C475.734 54.4375 479.516 56.0312 483.922 56.0312C488.328 56.0312 492.109 54.4375 495.266 51.25C498.453 48.0312 500.047 44.1094 500.047 39.4844Z" stroke="black" stroke-width="3" mask="url(#path-1-outside-1)"/>
<path d="M564.547 31.0469V36.6719H524.375V31.0469H564.547Z" stroke="black" stroke-width="3" mask="url(#path-1-outside-1)"/>
<path d="M585.312 57.0625V10.0938H580.016C579.078 10.0938 578.406 9.92188 578 9.57812C577.594 9.20312 577.391 8.71875 577.391 8.125C577.391 7.53125 577.594 7.0625 578 6.71875C578.406 6.34375 579.078 6.15625 580.016 6.15625H604.766C609.672 6.15625 613.656 7.57812 616.719 10.4219C619.812 13.2344 621.359 16.5469 621.359 20.3594C621.359 25.1719 618.781 29.0625 613.625 32.0312C617.719 33.5 620.719 35.4531 622.625 37.8906C624.531 40.3281 625.484 43.0156 625.484 45.9531C625.484 48.5781 624.859 50.9844 623.609 53.1719C622.359 55.3281 620.438 57.1719 617.844 58.7031C615.281 60.2344 612.484 61 609.453 61H580.016C579.078 61 578.406 60.8125 578 60.4375C577.594 60.0625 577.391 59.5938 577.391 59.0312C577.391 58.4375 577.594 57.9688 578 57.625C578.406 57.25 579.078 57.0625 580.016 57.0625H585.312ZM589.25 30.5312H603.172C606.141 30.5312 608.859 29.9844 611.328 28.8906C613.234 28.0156 614.719 26.75 615.781 25.0938C616.844 23.4375 617.375 21.75 617.375 20.0312C617.375 17.5625 616.219 15.2969 613.906 13.2344C611.594 11.1406 608.578 10.0938 604.859 10.0938H589.25V30.5312ZM589.25 57.0625H609.172C611.703 57.0625 613.906 56.5 615.781 55.375C617.656 54.25 619.078 52.8594 620.047 51.2031C621.016 49.5469 621.5 47.8281 621.5 46.0469C621.5 44.0469 620.797 42.1094 619.391 40.2344C618.016 38.3594 616.094 36.9375 613.625 35.9688C611.156 35 607.75 34.5156 603.406 34.5156H589.25V57.0625Z" stroke="black" stroke-width="3" mask="url(#path-1-outside-1)"/>
<path d="M681.078 41.6406H640.953C641.641 46.7344 643.766 50.8438 647.328 53.9688C650.922 57.0625 655.359 58.6094 660.641 58.6094C663.578 58.6094 666.656 58.125 669.875 57.1562C673.094 56.1875 675.719 54.9062 677.75 53.3125C678.344 52.8438 678.859 52.6094 679.297 52.6094C679.797 52.6094 680.234 52.8125 680.609 53.2188C680.984 53.5938 681.172 54.0469 681.172 54.5781C681.172 55.1094 680.922 55.625 680.422 56.125C678.922 57.6875 676.25 59.1562 672.406 60.5312C668.594 61.875 664.672 62.5469 660.641 62.5469C653.891 62.5469 648.25 60.3438 643.719 55.9375C639.219 51.5 636.969 46.1406 636.969 39.8594C636.969 34.1406 639.078 29.2344 643.297 25.1406C647.547 21.0469 652.797 19 659.047 19C665.484 19 670.781 21.1094 674.938 25.3281C679.094 29.5156 681.141 34.9531 681.078 41.6406ZM677.094 37.6562C676.312 33.3125 674.25 29.7812 670.906 27.0625C667.594 24.3438 663.641 22.9844 659.047 22.9844C654.453 22.9844 650.5 24.3281 647.188 27.0156C643.875 29.7031 641.812 33.25 641 37.6562H677.094Z" stroke="black" stroke-width="3" mask="url(#path-1-outside-1)"/>
<path d="M712.719 20.4062V30.3438C717.844 25.7188 721.672 22.75 724.203 21.4375C726.766 20.0938 729.125 19.4219 731.281 19.4219C733.625 19.4219 735.797 20.2188 737.797 21.8125C739.828 23.375 740.844 24.5625 740.844 25.375C740.844 25.9688 740.641 26.4688 740.234 26.875C739.859 27.25 739.375 27.4375 738.781 27.4375C738.469 27.4375 738.203 27.3906 737.984 27.2969C737.766 27.1719 737.359 26.8125 736.766 26.2188C735.672 25.125 734.719 24.375 733.906 23.9688C733.094 23.5625 732.297 23.3594 731.516 23.3594C729.797 23.3594 727.719 24.0469 725.281 25.4219C722.875 26.7969 718.688 30.1562 712.719 35.5V57.0625H730.156C731.125 57.0625 731.812 57.25 732.219 57.625C732.625 57.9688 732.828 58.4375 732.828 59.0312C732.828 59.5938 732.625 60.0625 732.219 60.4375C731.812 60.8125 731.125 61 730.156 61H699.266C698.328 61 697.656 60.8281 697.25 60.4844C696.844 60.1094 696.641 59.6406 696.641 59.0781C696.641 58.5469 696.828 58.1094 697.203 57.7656C697.609 57.3906 698.297 57.2031 699.266 57.2031H708.781V24.3906H701.516C700.578 24.3906 699.906 24.2031 699.5 23.8281C699.094 23.4531 698.891 22.9688 698.891 22.375C698.891 21.8125 699.078 21.3438 699.453 20.9688C699.859 20.5938 700.547 20.4062 701.516 20.4062H712.719Z" stroke="black" stroke-width="3" mask="url(#path-1-outside-1)"/>
<path d="M786.406 61V55.3281C780.688 60.1406 774.578 62.5469 768.078 62.5469C763.359 62.5469 759.672 61.3594 757.016 58.9844C754.359 56.5781 753.031 53.6406 753.031 50.1719C753.031 46.3594 754.781 43.0312 758.281 40.1875C761.781 37.3438 766.891 35.9219 773.609 35.9219C775.422 35.9219 777.391 36.0469 779.516 36.2969C781.641 36.5156 783.938 36.875 786.406 37.375V31C786.406 28.8438 785.406 26.9688 783.406 25.375C781.406 23.7812 778.406 22.9844 774.406 22.9844C771.344 22.9844 767.047 23.875 761.516 25.6562C760.516 25.9688 759.875 26.125 759.594 26.125C759.094 26.125 758.656 25.9375 758.281 25.5625C757.938 25.1875 757.766 24.7188 757.766 24.1562C757.766 23.625 757.922 23.2031 758.234 22.8906C758.672 22.4219 760.438 21.7812 763.531 20.9688C768.406 19.6562 772.094 19 774.594 19C779.562 19 783.438 20.2344 786.219 22.7031C789 25.1406 790.391 27.9062 790.391 31V57.0625H795.641C796.609 57.0625 797.297 57.25 797.703 57.625C798.109 57.9688 798.312 58.4375 798.312 59.0312C798.312 59.5938 798.109 60.0625 797.703 60.4375C797.297 60.8125 796.609 61 795.641 61H786.406ZM786.406 41.4062C784.562 40.875 782.609 40.4844 780.547 40.2344C778.484 39.9844 776.312 39.8594 774.031 39.8594C768.312 39.8594 763.844 41.0938 760.625 43.5625C758.188 45.4062 756.969 47.6094 756.969 50.1719C756.969 52.5469 757.891 54.5469 759.734 56.1719C761.609 57.7969 764.328 58.6094 767.891 58.6094C771.297 58.6094 774.453 57.9375 777.359 56.5938C780.297 55.2188 783.312 53.0469 786.406 50.0781V41.4062Z" stroke="black" stroke-width="3" mask="url(#path-1-outside-1)"/>
<path d="M828.031 20.4062V30.3438C833.156 25.7188 836.984 22.75 839.516 21.4375C842.078 20.0938 844.438 19.4219 846.594 19.4219C848.938 19.4219 851.109 20.2188 853.109 21.8125C855.141 23.375 856.156 24.5625 856.156 25.375C856.156 25.9688 855.953 26.4688 855.547 26.875C855.172 27.25 854.688 27.4375 854.094 27.4375C853.781 27.4375 853.516 27.3906 853.297 27.2969C853.078 27.1719 852.672 26.8125 852.078 26.2188C850.984 25.125 850.031 24.375 849.219 23.9688C848.406 23.5625 847.609 23.3594 846.828 23.3594C845.109 23.3594 843.031 24.0469 840.594 25.4219C838.188 26.7969 834 30.1562 828.031 35.5V57.0625H845.469C846.438 57.0625 847.125 57.25 847.531 57.625C847.938 57.9688 848.141 58.4375 848.141 59.0312C848.141 59.5938 847.938 60.0625 847.531 60.4375C847.125 60.8125 846.438 61 845.469 61H814.578C813.641 61 812.969 60.8281 812.562 60.4844C812.156 60.1094 811.953 59.6406 811.953 59.0781C811.953 58.5469 812.141 58.1094 812.516 57.7656C812.922 57.3906 813.609 57.2031 814.578 57.2031H824.094V24.3906H816.828C815.891 24.3906 815.219 24.2031 814.812 23.8281C814.406 23.4531 814.203 22.9688 814.203 22.375C814.203 21.8125 814.391 21.3438 814.766 20.9688C815.172 20.5938 815.859 20.4062 816.828 20.4062H828.031Z" stroke="black" stroke-width="3" mask="url(#path-1-outside-1)"/>
<path d="M909.688 2.17188V57.0625H914.938C915.906 57.0625 916.594 57.25 917 57.625C917.406 57.9688 917.609 58.4375 917.609 59.0312C917.609 59.5938 917.406 60.0625 917 60.4375C916.594 60.8125 915.906 61 914.938 61H905.703V53.1719C901.141 59.4219 895.344 62.5469 888.312 62.5469C884.75 62.5469 881.328 61.6094 878.047 59.7344C874.797 57.8281 872.219 55.125 870.312 51.625C868.438 48.125 867.5 44.5156 867.5 40.7969C867.5 37.0469 868.438 33.4375 870.312 29.9688C872.219 26.4688 874.797 23.7656 878.047 21.8594C881.328 19.9531 884.766 19 888.359 19C895.234 19 901.016 22.125 905.703 28.375V6.15625H900.453C899.484 6.15625 898.797 5.96875 898.391 5.59375C897.984 5.21875 897.781 4.73438 897.781 4.14062C897.781 3.57812 897.984 3.10938 898.391 2.73438C898.797 2.35938 899.484 2.17188 900.453 2.17188H909.688ZM905.703 40.7969C905.703 35.7969 904.016 31.5781 900.641 28.1406C897.266 24.7031 893.25 22.9844 888.594 22.9844C883.906 22.9844 879.875 24.7031 876.5 28.1406C873.125 31.5781 871.438 35.7969 871.438 40.7969C871.438 45.7656 873.125 49.9844 876.5 53.4531C879.875 56.8906 883.906 58.6094 888.594 58.6094C893.25 58.6094 897.266 56.8906 900.641 53.4531C904.016 49.9844 905.703 45.7656 905.703 40.7969Z" stroke="black" stroke-width="3" mask="url(#path-1-outside-1)"/>
</svg>
